<?xml version="1.0" encoding="utf-8"?>
<!-- Generator: Adobe Illustrator 13.0.0, SVG Export Plug-In . SVG Version: 6.00 Build 14948)  -->
<!DOCTYPE svg PUBLIC "-//W3C//DTD SVG 1.1//EN" "http://www.w3.org/Graphics/SVG/1.1/DTD/svg11.dtd">
<svg version="1.1" id="Layer_1" xmlns="http://www.w3.org/2000/svg" xmlns:xlink="http://www.w3.org/1999/xlink" x="0px" y="0px"
	 width="421px" height="165px" viewBox="0 0 421 165" enable-background="new 0 0 421 165" xml:space="preserve">
<rect x="-18.977" y="-27.294" fill="none" width="489.844" height="217.865"/>
<path fill="#EE3424" d="M66.204,15.292c9.035,0,11.874,6.472,14.247,12.943c1.008,2.742,24.475,67.004,25.174,68.932
	c0.197,0.533,0.068,1.422-0.762,1.738c-0.831,0.312-13.025,5.057-13.698,5.311c-0.674,0.252-1.433-0.123-1.681-0.793
	c-0.25-0.666-5.305-14.676-5.875-16.242c-1.681,0-33.09,0-34.768,0c-0.573,1.566-5.68,15.604-5.915,16.242
	c-0.232,0.645-0.966,1.074-1.678,0.793c-0.715-0.283-12.964-5.029-13.688-5.311c-0.7-0.268-1.023-1.066-0.772-1.738
	c0.86-2.41,23.97-65.636,25.153-68.932C54.229,21.867,57.172,15.292,66.204,15.292z M24.928,130.268
	c-0.729,0-1.317,0.607-1.317,1.352v15.014c0,0.75,0.589,1.348,1.317,1.348h82.553c0.723,0,1.306-0.598,1.306-1.348v-15.014
	c0-0.744-0.583-1.352-1.306-1.352H24.928 M66.135,36.275l-11.759,35.3h23.702l-11.799-35.3H66.135z M242.527,94.15
	c-1.729,0.592-2.871,0.736-4.235,0.736c-2.81,0-4.374-1.113-4.374-3.998c0-3.002,1.988-4.014,5.88-4.014
	c0.938,0,1.884,0.139,2.32,0.291v2.148C242.118,91.637,242.24,93.16,242.527,94.15z M252.516,97.6
	c-2.072-3.156-2.613-5.014-2.613-8.992v-8.059c0-4.352-0.504-5.915-1.658-7.504c-1.594-2.243-4.254-3.215-9.158-3.215
	c-3.461,0-6.829,0.377-10.084,1.203l1.164,5.74c2.209-0.307,4.517-0.576,6.146-0.576c5.206,0,5.807,0.757,5.807,4.658v1.459
	c-1.157-0.309-2.462-0.532-3.972-0.532c-7.832,0-11.967,3.83-11.967,10.169c0,5.949,4.413,9.191,9.801,9.191
	c2.018,0,4.115-0.371,5.777-1.043c1.002-0.443,1.438-0.697,2.744-1.545c0.774,1.145,2.35,2.307,2.989,2.516L252.516,97.6z
	 M329.991,94.15c-1.734,0.592-2.868,0.736-4.237,0.736c-2.814,0-4.405-1.113-4.405-3.998c0-3.002,2.013-4.014,5.913-4.014
	c0.941,0,1.88,0.139,2.309,0.291v2.148C329.57,91.637,329.698,93.16,329.991,94.15z M339.981,97.6
	c-2.083-3.156-2.618-5.014-2.618-8.992v-8.059c0-4.352-0.505-5.915-1.662-7.504c-1.591-2.243-4.251-3.215-9.158-3.215
	c-3.466,0-6.863,0.377-10.11,1.203l1.159,5.74c2.207-0.307,4.524-0.576,6.188-0.576c5.189,0,5.791,0.757,5.791,4.658v1.459
	c-1.15-0.309-2.447-0.532-3.968-0.532c-7.857,0-11.997,3.83-11.997,10.169c0,5.949,4.418,9.191,9.836,9.191
	c2.015,0,4.113-0.371,5.771-1.043c1.012-0.443,1.441-0.697,2.74-1.545c0.783,1.145,2.362,2.307,2.998,2.516L339.981,97.6z
	 M400.969,100.471c0,0-4.289-9.154-5.335-11.229c-1.187-2.35-2.278-3.973-4.699-4.543v-0.141c1.62-0.307,2.912-1.291,4.301-4.283
	c1.354-2.921,1.746-3.55,2.528-4.239c0.776-0.7,1.83-0.439,1.83-0.439l0.402-5.406c-1.128-0.148-2.376-0.152-3.662-0.078
	c-2.127,0.127-3.232,0.732-4.279,1.793c-0.812,0.809-1.372,2.016-2.059,3.398c-0.737,1.512-1.317,2.732-2.067,4.274
	c-0.749,1.573-1.122,2.28-3.157,2.28h-1.319V57.962h-7.858v42.508h7.858V88.25l1.066-0.023c2.253,0,2.643,0.557,3.829,2.928
	c1.397,2.832,4.055,9.316,4.055,9.316H400.969z M180.056,100.471h9.053l-13.685-41.792c-1.436-0.485-3.228-0.788-5.131-0.788
	c-2.078,0-2.816,0.277-4.445,0.788l-14.475,41.792h8.679c0,0,1.168-3.664,2.556-8.215h15.004
	C178.957,96.803,180.056,100.471,180.056,100.471z M164.813,85.248c0,0,2.497-8.383,2.883-9.695
	c1.012-3.375,2.521-8.745,2.521-8.745h0.252c0,0,1.392,5.566,2.309,8.695c0.348,1.236,2.743,9.745,2.743,9.745H164.813z
	 M265.879,80.476c-2.771,0-5.018,2.255-5.018,5.026c0,2.783,2.246,5.021,5.018,5.021c2.768,0,5.012-2.238,5.012-5.021
	C270.891,82.731,268.646,80.476,265.879,80.476z M199.857,57.962h-7.86v42.508h7.86V57.962z M356.068,76.584
	c4.338,0.099,4.871,0.99,4.871,4.64v19.247h7.788V80.548c0-4.352-0.504-5.915-1.659-7.504c-1.593-2.243-4.744-3.215-10.055-3.215
	c-5.255,0-8.598,0.559-12.913,1.842v28.799h7.869V76.954C354.044,76.654,354.398,76.584,356.068,76.584z M219.296,57.208
	c-4.904,0-7.57,0.966-9.161,3.21c-1.154,1.588-1.66,3.193-1.66,7.548v3.705h-3.906v6.354h3.906v22.445h7.786l-0.018-22.445h7.778
	v-6.354h-7.778l0.018-3.407c0-3.896,0.604-4.652,5.808-4.652c0.559,0,1.191,0.03,1.869,0.082l1.229-6.103
	C223.24,57.331,221.275,57.208,219.296,57.208z M281.859,57.6c2.675-0.155,8.646-0.378,12.407-0.378c0.668,0,1.37,0.006,2.089,0.038
	c7.386,0,11.609,5.376,11.609,11.678c0,4.286-1.962,7.131-6.562,8.83c5.421,1.198,8.258,5.429,8.258,10.595
	c0,3.795-1.082,6.805-3.054,8.863l0,0c-2.54,2.514-6.393,3.916-11.52,3.914c-4.582,0-10.307-0.137-13.228-0.311V57.6z
	 M294.267,64.57c-1.317,0-2.911,0.021-4.513,0.079c0,0.694,0,9.515,0,10.207c0.646,0,4.52,0,4.52,0c1.771,0,3.216-0.498,4.2-1.459
	c0.926-0.899,1.407-2.18,1.407-3.7c0-3.258-1.762-5.112-5.043-5.127C294.566,64.57,294.448,64.57,294.267,64.57z M294.416,93.818
	c0.121,0,0.243,0,0.363,0c4.064,0,6.586-2.178,6.611-6.561c-0.046-1.582-0.644-3.029-1.716-4.078
	c-1.192-1.188-2.865-1.809-4.825-1.809c0,0-4.436,0-5.096,0c0,0.703,0,11.693,0,12.398C291.19,93.799,292.77,93.811,294.416,93.818z
	"/>
</svg>
